#!OML:ASF F:\VICON\USERDATA\INSTALL\rory3\rory3.ASF
:FULLY-SPECIFIED
:DEGREES
45
root -0.16220351314535314 18.169749269912558 9.710770420107467 -3.5407491729231553 -2.5020255973440744 -6.911050742525646
lfemur -25.992936967376178 3.704076664092518 -13.004187060908546
ltibia 64.55684834056734
lfoot -6.4471519657728225 -0.5146533518447858
ltoes -5.674749432118123
rfemur -3.790926901241024 6.776902451999174 33.81423582999857
rtibia 26.147538078999514
rfoot -18.3038839049848 -7.214783572052731
rtoes 7.631750839782667
lowerback 10.048895479341896 1.1860551798665484 5.544159636977332
upperback 0.4935821902791605 2.359483994129394 2.362768556746429
thorax -5.044590808651953 1.0583197181558672 -1.1048856855884783
lowerneck -16.32157659786825 -3.091837470756185 -1.7101128259772793
upperneck 21.24754756422009 -4.050775665513824 0.8734384189580378
head 9.463197108646725 -1.923509935728834 0.047470873224661925
lclavicle -2.7980082436113407e-15 1.2934847001299047e-16
lhumerus -34.18415145910463 -0.8623631614208307 84.47803617622795
lradius 26.30815988431455
lwrist 6.195754041407196
lhand -26.92820758084336 23.33683277126522
lfingers 7.12502
lthumb -0.3506820649960608 53.31687548552465
rclavicle -2.7980082436113407e-15 1.2934847001299047e-16
rhumerus -26.631303422229845 -14.842345121205934 -81.1850749764335
rradius 24.289592408674647
rwrist 4.591095974654342
rhand -17.646515971381433 19.96769290833564
rfingers 7.12502
rthumb 8.611422457567619 -9.82537683534725
46
root -0.14912897057099878 18.10522128528559 10.038972678585463 -2.980925930415747 -3.3608852232971578 -7.600522518181423
lfemur -28.365287965617103 2.577889242363994 -12.331453727743323
ltibia 54.63335990196771
lfoot -7.020853297391417 2.5940515445626247
ltoes -4.5846749719731905
rfemur -1.4643719886262527 6.883251096696894 34.526726695901196
rtibia 24.613555463429776
rfoot -19.994930433146724 -7.772032055684055
rtoes 7.294476973193223
lowerback 10.031905391736915 1.5581448499831745 6.417316613644308
upperback 0.4430101090638516 2.950795443959675 2.2704834094711153
thorax -5.045242906920159 1.3285359535103178 -1.7882920648387355
lowerneck -16.57558016435084 -3.09780945604767 -1.6496550557293936
upperneck 20.958588971412922 -4.06641100660732 0.859299208971443
head 9.391280536616854 -1.9249199123432985 0.030897881362782154
lclavicle -3.0903527194155027e-15 -1.4005177628664954e-16
lhumerus -35.227276403683646 -0.32738207869236025 84.40709976276202
lradius 25.98079191776685
lwrist 6.302742121277591
lhand -27.022857894199426 22.931841632420937
lfingers 7.12502
lthumb -0.4421199772806417 52.90774386118694
rclavicle -3.0903527194155027e-15 -1.4005177628664954e-16
rhumerus -25.50812890548219 -12.541181761290332 -81.92495799910596
rradius 25.679516494367743
rwrist 2.8059784659013056
rhand -18.049932853166244 21.172122541208473
rfingers 7.12502
rthumb 8.222081347520804 -8.64104532587659
47
root -0.11489490586380785 18.044022309310577 11.135209779626585 -2.239162044741242 -4.011306229683388 -8.150794919199301
lfemur -28.83884906358241 0.5421001329503352 -10.800677903965848
ltibia 42.868458587210824
lfoot -6.7653904888025345 5.823684174559378
ltoes -4.001933689593338
rfemur 1.759733034724384 7.092976726426173 35.49599809127514
rtibia 23.136644001182113
rfoot -20.909749542792046 -7.987684726608352
rtoes 6.839902086972799
lowerback 9.894518430630082 1.966132729849582 7.34101821873881
upperback 0.39317546506087153 3.5801975117540503 2.288066594952721
thorax -4.964467930560448 1.6206154074581203 -2.2258949792935767
lowerneck -16.822229448427926 -3.097413898347708 -1.5514857703803442
upperneck 20.672075492714246 -4.071398422826672 0.8956077509470871
head 9.326181181537303 -1.9222719958444663 0.030511412701242982
lclavicle -2.63567559840178e-15 2.7878504788707703e-16
lhumerus -35.962909177072454 0.58613398634328 84.39301961255565
lradius 25.705406285626605
lwrist 6.035753294767417
lhand -27.101920523734726 22.988823472964935
lfingers 7.12502
lthumb -0.5184688419512857 52.9612266489074
rclavicle -2.63567559840178e-15 2.7878504788707703e-16
rhumerus -24.27760569417622 -10.448267695046189 -82.27843298361553
rradius 27.073145406792026
rwrist 1.5536445646058388
rhand -18.286830835407734 22.24513397091031
rfingers 7.12502
rthumb 7.993430216592596 -7.581195986955437
48
root -0.06494683806671553 17.976469312499344 12.697500623923643 -1.4262427613667872 -4.512122377051547 -8.525099038296437
lfemur -28.185363496550693 -2.0834120295844216 -8.930666302234027
ltibia 30.25145175310398
lfoot -6.249563939703436 8.87703218958817
ltoes -3.455019948337993
rfemur 5.485755077208289 7.372899891082007 36.276619885990925
rtibia 21.45590137926335
rfoot -21.80601195206069 -8.102977209907465
rtoes 5.542456622097813
lowerback 9.634232442196035 2.353115540089445 8.11667451571644
upperback 0.33906188890668465 4.155471829955509 2.334957735065395
thorax -4.8284298780658075 1.8899934335816575 -2.5026002136030723
lowerneck -17.039602600295915 -3.093100858626988 -1.448278647584429
upperneck 20.471197902100396 -4.0683627115958965 0.9474004958897009
head 9.285948163428058 -1.91782746927081 0.03514419514598559
lclavicle -1.9907543760142273e-15 8.72768476016035e-16
lhumerus -36.519639150757435 1.5913850671056395 84.39249220951575
lradius 25.310466534856555
lwrist 5.503106708086828
lhand -27.018094942723398 23.25149548700416
lfingers 7.12502
lthumb -0.43752364617101513 53.22263175609683
rclavicle -1.9907543760142273e-15 8.72768476016035e-16
rhumerus -23.099861019505354 -8.86891837404606 -82.4149463707124
rradius 28.256829290673306
rwrist 0.7877839569791023
rhand -18.399042943978863 23.41547463764311
rfingers 7.12502
rthumb 7.885121630240538 -6.419512001702816
49
root -0.010255687422214166 17.888107524683992 12.900666364456832 -0.8102635272769654 -5.101383794480386 -8.842961783615793
lfemur -27.585609342133555 -4.589660527617823 -7.950348829450604
ltibia 18.53519044499788
lfoot -6.117901218128912 10.239049028295447
ltoes -3.702015723996632
rfemur 8.169011469757113 7.415768495225831 36.300993109650754
rtibia 19.644599422404635
rfoot -23.210168605583412 -8.086323528764666
rtoes 2.8048895489728443
lowerback 9.327439051153195 2.602190313608552 8.313810862064905
upperback 0.26364015315194 4.481009221174963 2.2872461036406424
thorax -4.724193301339395 2.050130316597735 -2.7605984623619704
lowerneck -17.281102895075204 -3.1017090837798302 -1.4007540816038475
upperneck 20.32423244242748 -4.0852809849082 0.9869292158473182
head 9.267260399118419 -1.921655023200071 0.03193180968703686
lclavicle -2.3492018896241646e-15 5.427851850291451e-16
lhumerus -37.3691215161584 2.39892009668925 84.27570949335721
lradius 24.362333774840735
lwrist 4.669838574188162
lhand -27.217772694933583 23.183559541956484
lfingers 7.12502
lthumb -0.6303690371993701 53.154944307839216
rclavicle -2.3492018896241646e-15 5.427851850291451e-16
rhumerus -22.348693381885475 -8.282589816669757 -82.60204145514646
rradius 28.967678097080967
rwrist 0.24712577737111285
rhand -18.554748201256796 23.932503782766926
rfingers 7.12502
rthumb 7.7348315699137755 -5.907838065377303
